<svg width="45" height="52" viewBox="0 0 45 52" fill="none" xmlns="http://www.w3.org/2000/svg">
<path d="M24.6168 47.1733C23.7151 47.6116 22.9552 47.9416 22.4018 48.1685C21.855 47.942 21.1061 47.6136 20.2184 47.1781C18.2502 46.2125 15.6397 44.7401 13.0456 42.7127C7.82969 38.6366 3 32.5954 3 24.1083V7.87725L22.5 3.68394L42 7.87725V24.1083C42 32.5834 37.132 38.6234 31.8615 42.7045C29.2416 44.7332 26.6051 46.2069 24.6168 47.1733Z" stroke="#0085FF" stroke-width="6" stroke-miterlimit="10"/>
<path fill-rule="evenodd" clip-rule="evenodd" d="M17.1429 19.5263C17.1429 16.4736 19.5407 14 22.5 14C25.4593 14 27.8571 16.4736 27.8571 19.5263V22.8421H28.2857C29.2286 22.8421 30 23.6379 30 24.6105V32.3474C30 33.8063 28.8429 35 27.4286 35H17.5714C16.1571 35 15 33.8063 15 32.3474V24.6105C15 23.6379 15.7714 22.8421 16.7143 22.8421H17.1429V19.5263ZM25.7143 19.5263V22.8421H19.2857V19.5263C19.2857 17.6938 20.7236 16.2105 22.5 16.2105C24.2764 16.2105 25.7143 17.6938 25.7143 19.5263ZM22.5 25.3289C22.0739 25.3285 21.6604 25.4777 21.3276 25.7521C20.9947 26.0265 20.7624 26.4096 20.6688 26.8384C20.5753 27.2672 20.626 27.7161 20.8128 28.1111C20.9996 28.5061 21.3113 28.8238 21.6964 29.0117V31.6842C21.6964 31.9041 21.7811 32.1149 21.9318 32.2704C22.0825 32.4258 22.2869 32.5132 22.5 32.5132C22.7131 32.5132 22.9175 32.4258 23.0682 32.2704C23.2189 32.1149 23.3036 31.9041 23.3036 31.6842V29.0117C23.6887 28.8238 24.0004 28.5061 24.1872 28.1111C24.374 27.7161 24.4247 27.2672 24.3312 26.8384C24.2376 26.4096 24.0053 26.0265 23.6724 25.7521C23.3396 25.4777 22.9261 25.3285 22.5 25.3289Z" fill="#0085FF"/>
</svg>
