<svg width="17" height="22" viewBox="0 0 17 22" xmlns="http://www.w3.org/2000/svg">
  <path id="padlock" fill-rule="evenodd" clip-rule="evenodd"
    d="M2.31579 5.78947C2.31579 2.59137 4.90716 0 8.10526 0C11.3034 0 13.8947 2.59137 13.8947 5.78947V9.26316H14.3579C15.3768 9.26316 16.2105 10.0968 16.2105 11.1158V19.2211C16.2105 20.7495 14.96 22 13.4316 22H2.77895C1.25053 22 0 20.7495 0 19.2211V11.1158C0 10.0968 0.833684 9.26316 1.85263 9.26316H2.31579V5.78947ZM11.5789 5.78947V9.26316H4.63158V5.78947C4.63158 3.86968 6.18547 2.31579 8.10526 2.31579C10.0251 2.31579 11.5789 3.86968 11.5789 5.78947ZM8.10526 11.8684C7.64481 11.8679 7.19793 12.0243 6.83822 12.3117C6.47851 12.5992 6.22741 13.0006 6.1263 13.4498C6.02519 13.899 6.08008 14.3692 6.28194 14.7831C6.48381 15.1969 6.8206 15.5297 7.23684 15.7265V18.5263C7.23684 18.7566 7.32834 18.9775 7.4912 19.1404C7.65406 19.3032 7.87495 19.3947 8.10526 19.3947C8.33558 19.3947 8.55647 19.3032 8.71933 19.1404C8.88219 18.9775 8.97369 18.7566 8.97369 18.5263V15.7265C9.38993 15.5297 9.72672 15.1969 9.92859 14.7831C10.1304 14.3692 10.1853 13.899 10.0842 13.4498C9.98312 13.0006 9.73202 12.5992 9.37231 12.3117C9.0126 12.0243 8.56571 11.8679 8.10526 11.8684Z"
    fill="current" />
</svg>
